#!OML:ASF E:/inclinewalkrobotboard/Project1/Captureday1/Session1/subject1.ASF
:FULLY-SPECIFIED
:DEGREES
151
root 0 0 0 1.5397862498090227 -3.867897449751049 1.8519299589711316
lowerback 12.239466338795753 0.9606706067122589 0.025115687344151594
upperback -4.446832708942954 1.2162316246710185 -0.6309123557720172
thorax -11.735736735478056 0.562562272737155 -0.9370168359191995
lowerneck -6.067369181590464 1.8661715586256629 4.774045889367711
upperneck 18.110241844369718 3.4990888892545238 -8.585568275774945
head 6.648267363074859 1.3077829463796875 -3.280007607340913
rclavicle 2.1587130838227105E-15 -7.100937668939018E-16
rhumerus 21.087308363182302 15.625958760292297 -47.806550815440715
rradius 73.27568741963822
rwrist 26.695156152636237
rhand -34.615157346368036 -57.18133257421209
rfingers 7.1250200000000286
rthumb -7.717483173116687 -87.14242267476101
lclavicle -7.415063181477283E-16 -7.506771532590119E-16
lhumerus 23.169340555477525 -14.45279423970218 44.74496004213219
lradius 71.82725773304428
lwrist -22.25426063307289
lhand -45.75353943259793 -71.955589100568
lfingers 7.1250200000000286
lthumb -18.507603647653575 -42.73892963821618
rfemur -24.9717348527688 -1.9523966188237605 17.776211383927258
rtibia 50.6640644907211
rfoot -34.25821042599679 -18.286519663238355
rtoes -21.87515701953398
lfemur -28.08033843101684 2.1435674859765 -17.15263688248857
ltibia 50.87042614528271
lfoot -35.538668854684616 -0.28299317084961295
ltoes -22.096788025964834
152
root 0 0 0 1.5400431431687598 -3.8697062310494426 1.8518534741302966
lowerback 12.23844172316993 0.9617830894987929 0.025320597296866865
upperback -4.446762733525793 1.2176276555490233 -0.6313401906916979
thorax -11.734994308243037 0.5632547697463826 -0.9376949510930781
lowerneck -6.068034873168728 1.865863445440873 4.7736982843872635
upperneck 18.11166301490197 3.498502083826124 -8.584935547001942
head 6.648821255253437 1.307527421225549 -3.2797977358169366
rclavicle 2.1626787608506627E-15 -7.093624657856315E-16
rhumerus 21.086210807781427 15.625948270193954 -47.80802794849333
rradius 73.27541137979111
rwrist 26.694071305423307
rhand -34.61467262969096 -57.17789924266197
rfingers 7.1250200000000286
rthumb -7.71659519530567 -87.13958403291934
lclavicle -7.390229936039459E-16 -7.330932082791717E-16
lhumerus 23.16448327503138 -14.447928505066722 44.74465694650664
lradius 71.8234874299046
lwrist -22.255941686759193
lhand -45.751816951435714 -71.95403039765188
lfingers 7.1250200000000286
lthumb -18.505812201199202 -42.737446600455925
rfemur -24.972419892687928 -1.951236243986357 17.7745478010081
rtibia 50.66544118734821
rfoot -34.25256630376319 -18.290417799052207
rtoes -21.863460450877017
lfemur -28.07978247116204 2.1460256838908904 -17.151016185506656
ltibia 50.87494116890388
lfoot -35.521089972102345 -0.28605117563997995
ltoes -22.087441045373875
153
root 0 0 0 1.539946293323104 -3.8685729309276615 1.8518110009750939
lowerback 12.239256308517886 0.9609991426669924 0.0252819623145491
upperback -4.446799761486965 1.216662311185933 -0.6310022943330896
thorax -11.735553016744094 0.5627722922355876 -0.9372421775595889
lowerneck -6.067637497813968 1.866119737232926 4.773949832193594
upperneck 18.110748737889 3.498987375979758 -8.585462303547066
head 6.648475620929302 1.307732538787063 -3.2799699861156055
rclavicle 2.1623899709885654E-15 -7.083145184201748E-16
rhumerus 21.087477155226686 15.626458487452433 -47.80720576559546
rradius 73.27578469961513
rwrist 26.69452579713841
rhand -34.615031939492056 -57.180883223360496
rfingers 7.1250200000000286
rthumb -7.717355702369423 -87.14185426146327
lclavicle -7.385120695735904E-16 -7.485913304215302E-16
lhumerus 23.168615745521365 -14.451780657351856 44.744860433976314
lradius 71.826368574351
lwrist -22.254693194736817
lhand -45.753274452058335 -71.95543249666045
lfingers 7.1250200000000286
lthumb -18.507352124760093 -42.738828886908564
rfemur -24.9716562020944 -1.9535959008783825 17.775097291820135
rtibia 50.671741625077104
rfoot -34.25493966453813 -18.286666779551098
rtoes -21.871980676068947
lfemur -28.08346945972567 2.1433452748149686 -17.152559858461935
ltibia 50.86879913070565
lfoot -35.541013761752765 -0.2804890429430973
ltoes -22.09434611209399
154
root 0 0 0 1.5398627205605688 -3.868184357855465 1.8519715628152515
lowerback 12.239366794305397 0.9608082062382364 0.025109839335320794
upperback -4.446822632746545 1.216401452325324 -0.6309812973294519
thorax -11.735660787896323 0.5626471893042547 -0.9370999867628507
lowerneck -6.067484679915575 1.8661377494892688 4.773993972545114
upperneck 18.110429286901596 3.499028461449898 -8.585493967638161
head 6.648348332536119 1.3077565820709864 -3.2799817693151976
rclavicle 2.1604804275693266E-15 -7.087061670503927E-16
rhumerus 21.087840909962026 15.626855681418535 -47.80734803823867
rradius 73.27611008337443
rwrist 26.69428733587298
rhand -34.61510649682225 -57.180854180959
rfingers 7.1250200000000286
rthumb -7.717440686881499 -87.14197173780691
lclavicle -7.40313632102114E-16 -7.493262684321442E-16
lhumerus 23.16897743853181 -14.4524069224127 44.744947917298965
lradius 71.82692774649063
lwrist -22.254395054249457
lhand -45.753437051888085 -71.95542983959017
lfingers 7.1250200000000286
lthumb -18.507510109399114 -42.73881206157509
rfemur -24.971670542019133 -1.9532692697049665 17.77524885657361
rtibia 50.66922354807282
rfoot -34.25587228156807 -18.286285389724096
rtoes -21.874223461156205
lfemur -28.081774575778116 2.143329658227009 -17.15316432822661
ltibia 50.86712833293067
lfoot -35.542173867028865 -0.28020123432957966
ltoes -22.09499695895962
